<svg width="132" height="120" viewBox="0 0 132 120" fill="none" xmlns="http://www.w3.org/2000/svg">
<path d="M119.059 0C115.998 0.00105583 113.048 1.14592 110.788 3.20993C108.527 5.27394 107.12 8.10809 106.842 11.1562C96.6267 16.4519 90.8497 21.2721 87.7324 25.3789C81.852 22.796 75.5008 21.458 69.0781 21.4492C59.3999 21.4702 49.969 24.5076 42.0977 30.1387C38.2378 26.5529 32.3352 22.5577 23.5449 18.2793C23.6314 17.7163 23.677 17.1477 23.6816 16.5781C23.6818 13.4378 22.4345 10.426 20.2141 8.20523C17.9937 5.98449 14.9821 4.7367 11.8418 4.73633C10.2867 4.73626 8.7468 5.04249 7.31006 5.63757C5.87331 6.23265 4.56785 7.10493 3.46822 8.20456C2.3686 9.30419 1.49633 10.6096 0.901253 12.0464C0.306172 13.4831 -7.15637e-05 15.023 1.25439e-08 16.5781C-7.15637e-05 18.1332 0.306172 19.6731 0.901253 21.1099C1.49633 22.5466 2.3686 23.8521 3.46822 24.9517C4.56785 26.0513 5.87331 26.9236 7.31006 27.5187C8.7468 28.1138 10.2867 28.42 11.8418 28.4199C13.9081 28.4173 15.9377 27.874 17.729 26.844C19.5203 25.8141 21.0109 24.3333 22.0527 22.5488C25.2551 23.472 28.9012 25.1207 32.7246 27.9883C35.0987 29.7689 36.7299 31.6671 37.832 33.5664C33.0233 37.9218 29.1783 43.2343 26.5437 49.1632C23.909 55.0921 22.543 61.5063 22.5332 67.9941C22.5378 68.9468 22.5717 69.899 22.6348 70.8496C22.5043 72.1942 22.4316 73.559 22.4316 74.9453V83.1191C22.4316 103.025 36.2495 119.051 53.4141 119.051H84.5371C101.702 119.051 115.52 103.025 115.52 83.1191V74.9453C115.52 73.9943 115.478 73.055 115.416 72.123C115.546 70.7505 115.615 69.3728 115.623 67.9941C115.613 60.1565 113.624 52.4483 109.84 45.5844C106.056 38.7206 100.6 32.9234 93.9785 28.7305C94.7656 25.6432 96.6733 22.348 100.635 19.377C102.908 17.6723 105.118 16.3979 107.211 15.4492C107.91 18.0576 109.45 20.3627 111.592 22.0071C113.734 23.6516 116.358 24.5436 119.059 24.5449C122.313 24.5448 125.434 23.2519 127.736 20.9506C130.037 18.6493 131.33 15.528 131.33 12.2734C131.33 10.6618 131.013 9.06586 130.396 7.57681C129.78 6.08776 128.876 4.73474 127.736 3.59503C126.597 2.45532 125.244 1.55123 123.755 0.934387C122.266 0.317548 120.67 4.80533e-05 119.059 0ZM69.3242 31.8652C78.9168 31.8652 88.1165 35.6756 94.8996 42.4584C101.683 49.2411 105.494 58.4407 105.494 68.0332C105.494 72.7831 104.559 77.4865 102.741 81.8749C100.923 86.2632 98.259 90.2506 94.9003 93.6093C91.5416 96.968 87.5542 99.6323 83.1659 101.45C78.7775 103.268 74.0741 104.203 69.3242 104.203C64.5743 104.203 59.8709 103.268 55.4825 101.45C51.0942 99.6323 47.1068 96.968 43.7481 93.6093C40.3894 90.2506 37.7252 86.2632 35.9075 81.8749C34.0898 77.4865 33.1543 72.7831 33.1543 68.0332C33.1547 58.4407 36.9657 49.2411 43.7488 42.4584C50.532 35.6756 59.7317 31.8652 69.3242 31.8652ZM64.5469 108.939C64.6617 108.94 64.7762 108.951 64.8887 108.975C65.0012 108.997 65.1111 109.031 65.2168 109.076C65.3229 109.121 65.4244 109.176 65.5195 109.24C65.6621 109.338 65.7892 109.456 65.8965 109.592C65.932 109.636 65.9652 109.683 65.9961 109.73C66.0272 109.779 66.0559 109.829 66.082 109.881C66.108 109.932 66.1315 109.984 66.1523 110.037C66.1939 110.144 66.2247 110.256 66.2441 110.369C66.2609 110.466 66.2694 110.564 66.2695 110.662C66.2692 110.777 66.2575 110.891 66.2344 111.004C66.214 111.101 66.1853 111.197 66.1485 111.289C66.1435 111.303 66.1383 111.318 66.1329 111.332C66.0884 111.438 66.0335 111.54 65.9688 111.635C65.9036 111.73 65.829 111.818 65.7462 111.898C65.4248 112.21 64.9947 112.385 64.547 112.385C64.4896 112.385 64.4322 112.382 64.3751 112.377C64.2604 112.365 64.1472 112.342 64.0372 112.308C63.9828 112.291 63.9294 112.271 63.877 112.248C63.8764 112.248 63.8757 112.248 63.875 112.248C63.5635 112.116 63.2977 111.895 63.1108 111.613C62.9239 111.331 62.8243 111 62.8242 110.662C62.8239 110.489 62.8496 110.317 62.9005 110.152C62.918 110.098 62.9381 110.044 62.961 109.992C63.0502 109.78 63.1811 109.588 63.3457 109.427C63.3874 109.387 63.431 109.348 63.4766 109.312C63.6114 109.205 63.7615 109.119 63.9219 109.056C64.0292 109.015 64.1405 108.984 64.2539 108.965C64.3507 108.948 64.4487 108.94 64.5469 108.939ZM68.877 108.939C69.1032 108.939 69.3272 108.984 69.5362 109.07C69.7452 109.157 69.9352 109.284 70.0951 109.444C70.2551 109.604 70.382 109.794 70.4686 110.003C70.5551 110.212 70.5996 110.436 70.5996 110.662C70.5996 110.888 70.5551 111.112 70.4686 111.321C70.382 111.53 70.2551 111.72 70.0951 111.88C69.9352 112.04 69.7453 112.167 69.5362 112.254C69.3272 112.34 69.1032 112.385 68.877 112.385C68.6507 112.385 68.4267 112.34 68.2177 112.254C68.0087 112.167 67.8187 112.04 67.6588 111.88C67.4988 111.72 67.3719 111.53 67.2854 111.321C67.1988 111.112 67.1543 110.888 67.1543 110.662C67.1543 110.436 67.1988 110.212 67.2854 110.003C67.3719 109.794 67.4988 109.604 67.6588 109.444C67.8187 109.284 68.0087 109.157 68.2177 109.07C68.4267 108.984 68.6507 108.939 68.877 108.939ZM73.207 108.939C73.3218 108.94 73.4363 108.951 73.5488 108.975C73.6462 108.995 73.7416 109.024 73.834 109.06C73.8484 109.065 73.8627 109.071 73.877 109.076C73.9831 109.12 74.0845 109.175 74.1797 109.24C74.2748 109.305 74.3632 109.38 74.4434 109.463C74.4833 109.504 74.5211 109.547 74.5567 109.592C74.5921 109.636 74.6254 109.683 74.6563 109.73C74.6874 109.779 74.7161 109.829 74.7422 109.881C74.7682 109.932 74.7916 109.984 74.8125 110.037C74.8541 110.144 74.8848 110.256 74.9043 110.369C74.9142 110.425 74.9214 110.482 74.9258 110.539C74.9286 110.58 74.9299 110.621 74.9298 110.662C74.93 110.719 74.9273 110.777 74.9218 110.834C74.9103 110.948 74.8874 111.062 74.8534 111.172C74.8191 111.281 74.774 111.387 74.7186 111.488C74.5703 111.76 74.3517 111.986 74.0857 112.144C73.8197 112.301 73.5161 112.385 73.2069 112.385C73.1495 112.385 73.0921 112.382 73.035 112.377C72.9325 112.366 72.8312 112.345 72.7323 112.316C72.7212 112.313 72.7101 112.311 72.6991 112.308C72.6984 112.308 72.6977 112.308 72.6971 112.308C72.6427 112.291 72.5893 112.27 72.5369 112.247C72.4836 112.225 72.4315 112.201 72.3807 112.173C72.3304 112.146 72.2815 112.116 72.2342 112.083C72.1398 112.019 72.0522 111.945 71.9725 111.863C71.892 111.78 71.8201 111.69 71.7576 111.593C71.6954 111.496 71.6431 111.394 71.6014 111.287C71.5598 111.179 71.529 111.068 71.5096 110.955C71.4928 110.858 71.4843 110.76 71.4842 110.662C71.4845 110.547 71.4962 110.432 71.5193 110.32C71.5421 110.207 71.5761 110.097 71.6208 109.992C71.6653 109.886 71.7203 109.784 71.7849 109.689C71.8825 109.546 72.001 109.419 72.1365 109.312C72.181 109.276 72.2273 109.243 72.2751 109.212C72.3238 109.181 72.374 109.153 72.4255 109.126C72.4764 109.1 72.5286 109.077 72.5818 109.056C72.5824 109.056 72.5831 109.056 72.5838 109.056C72.6905 109.015 72.8011 108.984 72.9139 108.964C73.0106 108.948 73.1088 108.94 73.207 108.939Z" fill="black"/>
</svg>
